Coordinates
version=1
nRows=8
nColumns=55
inDegrees=yes

Units are S.I. units (second, meters, Newtons, ...)
If the header above contains a line with 'inDegrees', this indicates whether rotational values are in degrees (yes) or radians (no).

endheader
time	pelvis_tilt	pelvis_list	pelvis_rotation	pelvis_tx	pelvis_ty	pelvis_tz	hip_flexion_r	hip_adduction_r	hip_rotation_r	hip_flexion_l	hip_adduction_l	hip_rotation_l	flex_extension	lat_bending	axial_rotation	L4_L5_IVDjnt_r3	L4_L5_IVD_bendjnt_r1	L4_L5_IVD_rotjnt_r2	L3_L4_IVDjnt_r3	L3_L4_IVD_bendjnt_r1	L3_L4_IVD_rotjnt_r2	L2_L3_IVDjnt_r3	L2_L3_IVD_bendjnt_r1	L2_L3_IVD_rotjnt_r2	L1_L2_IVDjnt_r3	L1_L2_IVD_bendjnt_r1	L1_L2_IVD_rotjnt_r2	Torso_Rot	Abs_r3	Abs_t1	Abs_t2	LB_wrapjnt_r3	LB_wrapjnt_t1	LB_wrapjnt_t2	SC_y	SC_x	SC_z	SC_y_l	SC_x_l	SC_z_l	arm_flex_r	arm_add_r	arm_rot_r	elbow_flex_r	pro_sup_r	wrist_flex_r	wrist_dev_r	arm_flex_l	arm_add_l	arm_rot_l	elbow_flex_l	pro_sup_l	wrist_flex_l	wrist_dev_l
      8.21600000	     14.99470000	     -9.17990000	    -72.04429997	      0.15110000	      0.69860000	     -0.41830000	     45.41520000	     -8.07590000	     -3.75670000	     53.15749999	    -20.02680000	     31.06120000	     -0.00000000	      0.00000000	      0.00000000	     -0.00000001	      0.00000000	      0.00000000	     -0.00000001	      0.00000000	      0.00000000	     -0.00000002	      0.00000000	      0.00000000	     -0.00000000	      0.00000000	      0.00000000	      0.00000000	     -0.00000004	      0.00000000	      0.00000000	     -0.00000004	     -0.00000000	     -0.00000000	      0.00000000	     -0.00000005	      0.00088355	      0.00000000	     -0.00000005	     -0.00088355	     -3.40490000	    -31.69150000	    -15.97820000	     72.53760000	     89.99945434	    -31.94079999	     14.54079999	     21.51140000	    -11.96940000	     -1.24730000	      3.43120017	      9.11880006	    -26.17539999	    -24.99945382
      8.23200000	     15.00770000	     -9.21480000	    -71.97949997	      0.15100000	      0.69870000	     -0.41820000	     45.37190000	     -8.08740000	     -3.75730000	     53.14889999	    -20.02920000	     31.13250000	     -0.00000000	      0.00000000	      0.00000000	     -0.00000002	      0.00000000	      0.00000000	     -0.00000003	      0.00000000	      0.00000000	     -0.00000003	      0.00000000	      0.00000000	     -0.00000000	      0.00000000	      0.00000000	      0.00000000	     -0.00000008	      0.00000000	      0.00000000	     -0.00000008	     -0.00000000	     -0.00000000	      0.00000000	     -0.00000005	      0.00088355	      0.00000000	     -0.00000005	     -0.00088355	     -3.37710000	    -31.68610000	    -15.95830000	     72.43190000	     89.99945434	    -31.94459999	     14.54689999	     21.29470000	    -12.00300000	     -1.47900000	      3.10520019	      9.23310006	    -26.01319999	    -24.99945382
      8.24900000	     15.01810000	     -9.24470000	    -71.92279997	      0.15100000	      0.69870000	     -0.41820000	     45.33300000	     -8.09860000	     -3.76930000	     53.13429999	    -20.03040000	     31.18630000	     -0.00000000	      0.00000000	      0.00000000	     -0.00000002	      0.00000000	      0.00000000	     -0.00000002	      0.00000000	      0.00000000	     -0.00000003	      0.00000000	      0.00000000	     -0.00000000	      0.00000000	      0.00000000	      0.00000000	     -0.00000008	      0.00000000	      0.00000000	     -0.00000007	     -0.00000000	     -0.00000000	      0.00000000	     -0.00000005	      0.00088355	      0.00000000	     -0.00000005	     -0.00088355	     -3.35810000	    -31.67500000	    -15.94150000	     72.33710000	     89.99945434	    -31.94949999	     14.54159999	     21.12470000	    -12.04250000	     -1.69210000	      2.81980021	      9.33240006	    -25.89709999	    -24.99945382
      8.26600000	     15.02600000	     -9.26700000	    -71.88249997	      0.15090000	      0.69880000	     -0.41830000	     45.30140000	     -8.10410000	     -3.79900000	     53.10919999	    -20.03700000	     31.20890000	     -0.00000000	      0.00000000	      0.00000000	     -0.00000002	      0.00000000	      0.00000000	     -0.00000002	      0.00000000	      0.00000000	     -0.00000003	      0.00000000	      0.00000000	     -0.00000000	      0.00000000	      0.00000000	      0.00000000	     -0.00000008	      0.00000000	      0.00000000	     -0.00000007	     -0.00000000	     -0.00000000	      0.00000000	     -0.00000005	      0.00088355	      0.00000000	     -0.00000005	     -0.00088355	     -3.35710000	    -31.64560000	    -15.92720000	     72.26090000	     89.99945434	    -31.94919999	     14.51159999	     21.02500000	    -12.07980000	     -1.89300000	      2.55370023	      9.39680006	    -25.84619999	    -24.99945382
      8.28200000	     15.03120000	     -9.28440000	    -71.85049997	      0.15080000	      0.69890000	     -0.41830000	     45.27420000	     -8.10920000	     -3.84000000	     53.07809999	    -20.04250000	     31.21410000	     -0.00000000	      0.00000000	      0.00000000	     -0.00000002	      0.00000000	      0.00000000	     -0.00000002	      0.00000000	      0.00000000	     -0.00000003	      0.00000000	      0.00000000	     -0.00000000	      0.00000000	      0.00000000	      0.00000000	     -0.00000007	      0.00000000	      0.00000000	     -0.00000007	     -0.00000000	     -0.00000000	      0.00000000	     -0.00000005	      0.00088355	      0.00000000	     -0.00000005	     -0.00088355	     -3.36500000	    -31.61040000	    -15.91590000	     72.19570000	     89.99945434	    -31.95009999	     14.47009999	     20.97180000	    -12.12350000	     -2.07500000	      2.32830025	      9.44620006	    -25.84199999	    -24.99945382
      8.29900000	     15.03550000	     -9.29680000	    -71.82109997	      0.15080000	      0.69900000	     -0.41840000	     45.25030000	     -8.12090000	     -3.87440000	     53.04689999	    -20.04030000	     31.20610000	     -0.00000000	      0.00000000	      0.00000000	     -0.00000002	      0.00000000	      0.00000000	     -0.00000002	      0.00000000	      0.00000000	     -0.00000003	      0.00000000	      0.00000000	     -0.00000000	      0.00000000	      0.00000000	      0.00000000	     -0.00000007	      0.00000000	      0.00000000	     -0.00000006	     -0.00000000	     -0.00000000	      0.00000000	     -0.00000005	      0.00088355	      0.00000000	     -0.00000005	     -0.00088355	     -3.36880000	    -31.59320000	    -15.90970000	     72.13700000	     89.99945434	    -31.96449999	     14.43519999	     20.91270000	    -12.18350000	     -2.23910000	      2.19150027	      9.50160005	    -25.84419999	    -24.99945382
      8.31600000	     15.03890000	     -9.30110000	    -71.79209997	      0.15080000	      0.69910000	     -0.41850000	     45.23090000	     -8.14740000	     -3.89360000	     53.01479999	    -20.02170000	     31.18240000	     -0.00000000	      0.00000000	      0.00000000	     -0.00000001	      0.00000000	      0.00000000	     -0.00000002	      0.00000000	      0.00000000	     -0.00000002	      0.00000000	      0.00000000	     -0.00000000	      0.00000000	      0.00000000	      0.00000000	     -0.00000006	      0.00000000	      0.00000000	     -0.00000006	     -0.00000000	     -0.00000000	      0.00000000	     -0.00000005	      0.00088355	      0.00000000	     -0.00000005	     -0.00088355	     -3.36310000	    -31.61450000	    -15.91550000	     72.08150000	     89.99945434	    -32.00479999	     14.41299999	     20.81770000	    -12.27140000	     -2.37780000	      2.18260027	      9.56650005	    -25.84019999	    -24.99945382
      8.33200000	     15.04150000	     -9.30040000	    -71.76579997	      0.15090000	      0.69920000	     -0.41860000	     45.21490000	     -8.18050000	     -3.90620000	     52.98269999	    -19.99540000	     31.14570000	     -0.00000000	      0.00000000	      0.00000000	     -0.00000001	      0.00000000	      0.00000000	     -0.00000002	      0.00000000	      0.00000000	     -0.00000002	      0.00000000	      0.00000000	     -0.00000000	      0.00000000	      0.00000000	      0.00000000	     -0.00000006	      0.00000000	      0.00000000	     -0.00000006	     -0.00000000	     -0.00000000	      0.00000000	     -0.00000005	      0.00088355	      0.00000000	     -0.00000005	     -0.00088355	     -3.35350000	    -31.65370000	    -15.92630000	     72.03260000	     89.99945434	    -32.05859999	     14.39729999	     20.71640000	    -12.37550000	     -2.49880000	      2.26240026	      9.63730005	    -25.84249999	    -24.99945382
